<?xml version="1.0" encoding="UTF-8"?>
<svg width="29px" height="29px" viewBox="0 0 29 29" version="1.1" xmlns="http://www.w3.org/2000/svg" xmlns:xlink="http://www.w3.org/1999/xlink">
    <!-- Generator: Sketch 49.3 (51167) - http://www.bohemiancoding.com/sketch -->
    <title>Facebook</title>
    <desc>Created with Sketch.</desc>
    <defs></defs>
    <g id="Matt's-Copy" stroke="none" stroke-width="1" fill="none" fill-rule="evenodd">
        <g id="Home3" transform="translate(-1736.000000, -8537.000000)" fill="#000000" fill-rule="nonzero">
            <g id="footer" transform="translate(45.000000, 8526.000000)">
                <g id="Group-6" transform="translate(1.000000, 11.000000)">
                    <g id="Group-12" transform="translate(1553.000000, 0.000000)">
                        <g id="Group-11" transform="translate(137.000000, 0.000000)">
                            <g id="facebook-logo-button">
                                <path d="M14.39908,0 C6.45946,0 0,6.45946 0,14.39908 C0,22.33812 6.45946,28.79816 14.39908,28.79816 C22.33812,28.79816 28.79816,22.33812 28.79816,14.39908 C28.79816,6.45946 22.33928,0 14.39908,0 Z M17.98,14.906 L15.63738,14.906 C15.63738,18.64874 15.63738,23.25568 15.63738,23.25568 L12.16608,23.25568 C12.16608,23.25568 12.16608,18.6934 12.16608,14.906 L10.51598,14.906 L10.51598,11.95496 L12.16608,11.95496 L12.16608,10.04618 C12.16608,8.67912 12.81568,6.54298 15.66928,6.54298 L18.24158,6.55284 L18.24158,9.41746 C18.24158,9.41746 16.67848,9.41746 16.37456,9.41746 C16.07064,9.41746 15.63854,9.56942 15.63854,10.22134 L15.63854,11.95554 L18.28334,11.95554 L17.98,14.906 Z" id="Shape"></path>
                            </g>
                        </g>
                    </g>
                </g>
            </g>
        </g>
    </g>
</svg>