<?xml version="1.0" encoding="UTF-8"?>
<svg width="39px" height="39px" viewBox="0 0 39 39" version="1.1" xmlns="http://www.w3.org/2000/svg" xmlns:xlink="http://www.w3.org/1999/xlink">
    <!-- Generator: Sketch 49.3 (51167) - http://www.bohemiancoding.com/sketch -->
    <title>Youtube</title>
    <desc>Created with Sketch.</desc>
    <defs></defs>
    <g id="Matt's-Copy" stroke="none" stroke-width="1" fill="none" fill-rule="evenodd">
        <g id="Home3" transform="translate(-1091.000000, -3753.000000)" fill="#939393" fill-rule="nonzero">
            <g id="Group-14" transform="translate(75.000000, 3216.000000)">
                <g id="2" transform="translate(904.000000, 0.000000)">
                    <g id="Social-Icons" transform="translate(112.000000, 500.000000)">
                        <g id="Youtube">
                            <g id="youtube-symbol" transform="translate(0.000000, 37.000000)">
                                <path d="M15.9183673,23.877551 C18.8448483,22.418687 21.7457914,20.9732493 24.6734694,19.5136181 C21.7370127,18.0405606 18.8368677,16.5866835 15.9183673,15.122449 C15.9183673,18.050918 15.9183673,20.9494656 15.9183673,23.877551 Z" id="Shape"></path>
                                <path d="M19.5,0 C8.7308133,0 0,8.73041432 0,19.5 C0,30.2695857 8.7308133,39 19.5,39 C30.2691867,39 39,30.2695857 39,19.5 C39,8.73041432 30.2691867,0 19.5,0 Z M32.7863325,26.0089105 C32.448798,27.473156 31.2510691,28.5531867 29.8095652,28.7139744 C26.3955192,29.0957954 22.9403785,29.0977903 19.499202,29.0957954 C16.0580256,29.0977903 12.602087,29.0957954 9.18724297,28.7139744 C7.74573913,28.5531867 6.54880818,27.473156 6.21207161,26.0089105 C5.7321023,23.9230588 5.7321023,21.6468951 5.7321023,19.5 C5.7321023,17.3531049 5.73768798,15.0761432 6.21765729,12.9910895 C6.55439386,11.526844 7.75132481,10.4464143 9.19282864,10.2852276 C12.6076726,9.90380563 16.0636113,9.90181074 19.5047877,9.90380563 C22.9451662,9.90181074 26.4011049,9.90380563 29.8147519,10.2852276 C31.2570537,10.4464143 32.4547826,11.526445 32.7915192,12.9910895 C33.2714885,15.0765422 33.2674987,17.3531049 33.2674987,19.5 C33.2674987,21.6468951 33.2663018,23.9234578 32.7863325,26.0089105 Z" id="Shape"></path>
                            </g>
                        </g>
                    </g>
                </g>
            </g>
        </g>
    </g>
</svg>