<?xml version="1.0" encoding="utf-8"?>
<!-- Generator: Adobe Illustrator 16.0.0, SVG Export Plug-In . SVG Version: 6.00 Build 0)  -->
<!DOCTYPE svg PUBLIC "-//W3C//DTD SVG 1.1//EN" "http://www.w3.org/Graphics/SVG/1.1/DTD/svg11.dtd">
<svg version="1.1" id="Layer_1" xmlns="http://www.w3.org/2000/svg" xmlns:xlink="http://www.w3.org/1999/xlink" x="0px" y="0px"
	 width="1681.859px" height="1279.636px" viewBox="0 0 1681.859 1279.636" enable-background="new 0 0 1681.859 1279.636"
	 xml:space="preserve">
<g>
	<g>
		<path d="M815.576,675.542c-45.59,0-89.827-8.934-131.482-26.552c-40.224-17.014-76.345-41.365-107.358-72.379
			c-31.014-31.013-55.365-67.134-72.379-107.358c-17.618-41.656-26.552-85.893-26.552-131.482s8.934-89.827,26.552-131.482
			c17.014-40.225,41.365-76.345,72.379-107.359c31.013-31.013,67.134-55.365,107.358-72.378C725.749,8.933,769.986,0,815.576,0
			c27.46,0,54.782,3.307,81.208,9.831c25.678,6.338,50.618,15.736,74.128,27.933c46.067,23.898,88.512,59.532,121.133,105.636
			l-38.461,19.244c-26.895-36.741-61.837-66.423-102.148-87.335c-20.551-10.661-42.349-18.875-64.788-24.414
			c-23.112-5.706-47.024-8.599-71.071-8.599c-39.898,0-78.591,7.809-115.005,23.211c-35.183,14.881-66.785,36.189-93.927,63.332
			c-27.143,27.142-48.45,58.744-63.331,93.926c-15.402,36.414-23.211,75.108-23.211,115.006s7.809,78.591,23.211,115.005
			c14.881,35.183,36.188,66.784,63.331,93.927c27.142,27.142,58.744,48.45,93.927,63.331
			c36.414,15.402,75.107,23.211,115.005,23.211c24.3,0,48.455-2.953,71.795-8.778c22.657-5.654,44.646-14.035,65.358-24.91
			c40.651-21.345,76.347-52.964,102.543-88.973l38.276,19.151c-30.847,45.303-74.701,82.879-121.156,107.271
			c-23.694,12.441-48.854,22.029-74.78,28.499C870.926,672.165,843.325,675.542,815.576,675.542"/>
		<path d="M815.576,594.954c-34.71,0-68.393-6.803-100.114-20.219c-30.627-12.955-58.129-31.495-81.742-55.107
			c-23.612-23.612-42.153-51.114-55.107-81.742c-13.417-31.721-20.22-65.404-20.22-100.114s6.803-68.393,20.22-100.113
			c12.954-30.628,31.495-58.13,55.107-81.743c23.613-23.612,51.115-42.153,81.742-55.107c31.721-13.417,65.404-20.22,100.114-20.22
			c76.705,0,152.698,36.588,203.517,99.312l-39.065,19.546c-40.727-48.115-100.36-76.561-164.451-76.561
			c-29.019,0-57.158,5.679-83.637,16.878c-25.586,10.822-48.569,26.319-68.31,46.061c-19.742,19.741-35.239,42.724-46.061,68.31
			c-11.2,26.479-16.878,54.618-16.878,83.637c0,29.019,5.678,57.159,16.878,83.637c10.822,25.586,26.319,48.569,46.061,68.311
			c19.741,19.741,42.724,35.238,68.31,46.06c26.479,11.199,54.618,16.878,83.637,16.878c33.102,0,64.839-7.318,94.329-21.751
			c28.131-13.768,52.261-32.559,71.975-57.041l38.97,19.497c-26.14,34.515-58.692,59.061-92.352,75.534
			C893.17,586.187,855.178,594.954,815.576,594.954"/>
		<path d="M815.576,507.941c-22.963,0-45.251-4.502-66.245-13.381c-20.266-8.573-38.462-20.839-54.084-36.461
			c-15.621-15.621-27.888-33.817-36.46-54.084c-8.879-20.993-13.381-43.281-13.381-66.244c0-22.964,4.502-45.251,13.381-66.245
			c8.572-20.266,20.839-38.462,36.46-54.084c15.622-15.621,33.818-27.888,54.084-36.459c20.994-8.88,43.282-13.382,66.245-13.382
			c42.777,0,86.645,15.205,123.079,52.544l-40.297,20.161c-22.784-19.433-50.636-30.408-82.782-30.408
			c-34.156,0-66.268,13.301-90.42,37.453c-24.152,24.152-37.454,56.264-37.454,90.42s13.302,66.268,37.454,90.42
			c24.152,24.152,56.264,37.453,90.42,37.453c33.251,0,55.486-5.935,85.087-32.415l40.369,20.198
			C907.578,487.202,859.825,507.941,815.576,507.941"/>
		<polygon points="1072.572,557.106 961.863,501.715 981.767,473.837 1092.748,529.365 		"/>
		<polygon points="901.989,238.434 1012.698,183.043 992.795,155.165 879.736,207.837 		"/>
		<path d="M108.398,873.672c30.15,0,51.941,9.553,72.24,27.762c2.687,2.389,2.687,5.971,0.299,8.358l-18.209,18.807
			c-2.09,2.388-5.075,2.388-7.463,0c-12.538-11.045-29.255-17.612-45.971-17.612c-38.21,0-66.569,31.94-66.569,69.554
			c0,37.313,28.657,68.956,66.867,68.956c17.911,0,33.135-6.865,45.673-17.015c2.388-2.09,5.672-1.79,7.463,0l18.507,19.104
			c2.388,2.09,1.791,5.97-0.298,8.06c-20.299,19.702-45.971,28.956-72.539,28.956c-59.703,0-107.763-47.464-107.763-107.166
			C0.635,921.732,48.695,873.672,108.398,873.672"/>
		<path d="M279.743,882.329c0-2.985,2.388-5.672,5.672-5.672h85.375c35.821,0,65.075,28.657,65.075,64.181
			c0,27.463-18.209,49.852-44.179,60.3l40.896,75.822c2.09,3.88,0,8.656-5.075,8.656h-31.344c-2.686,0-4.179-1.492-4.776-2.687
			l-39.702-79.105H318.55v76.12c0,2.985-2.687,5.672-5.672,5.672h-27.463c-3.284,0-5.672-2.687-5.672-5.672V882.329z
			 M367.506,971.883c15.821,0,29.553-13.731,29.553-30.448c0-15.821-13.732-28.956-29.553-28.956h-48.658v59.404H367.506z"/>
		<path d="M538.252,882.329c0-2.985,2.388-5.672,5.672-5.672h121.495c3.283,0,5.671,2.687,5.671,5.672v24.479
			c0,2.983-2.388,5.67-5.671,5.67h-88.36v48.956h73.733c2.984,0,5.671,2.688,5.671,5.672v24.777c0,3.283-2.687,5.671-5.671,5.671
			H577.06v52.24h88.36c3.283,0,5.671,2.687,5.671,5.672v24.478c0,2.985-2.388,5.672-5.671,5.672H543.924
			c-3.284,0-5.672-2.687-5.672-5.672V882.329z"/>
		<path d="M746.316,1077.854l92.837-200.898c0.896-1.79,2.389-3.284,5.075-3.284h2.984c2.986,0,4.18,1.494,5.075,3.284
			l91.942,200.898c1.791,3.881-0.598,7.762-5.075,7.762h-25.97c-4.479,0-6.567-1.791-8.657-5.97l-14.627-32.239h-89.256
			l-14.627,32.239c-1.194,2.984-3.881,5.97-8.657,5.97h-25.97C746.913,1085.616,744.525,1081.735,746.316,1077.854
			 M875.274,1014.271l-29.853-65.673h-0.895l-29.254,65.673H875.274z"/>
		<path d="M1048.116,912.479h-45.673c-3.283,0-5.671-2.688-5.671-5.671v-24.479c0-2.985,2.388-5.672,5.671-5.672h130.45
			c3.284,0,5.672,2.687,5.672,5.672v24.479c0,2.983-2.388,5.671-5.672,5.671h-45.673v167.466c0,2.985-2.686,5.672-5.671,5.672
			h-27.762c-2.985,0-5.672-2.687-5.672-5.672V912.479z"/>
		<path d="M1319.467,873.672c59.702,0,107.465,48.061,107.465,107.764c0,59.702-47.763,107.166-107.465,107.166
			s-107.166-47.464-107.166-107.166C1212.301,921.732,1259.765,873.672,1319.467,873.672 M1319.467,1049.795
			c37.612,0,68.658-30.747,68.658-68.359s-31.046-68.957-68.658-68.957c-37.613,0-68.359,31.345-68.359,68.957
			S1281.854,1049.795,1319.467,1049.795"/>
		<path d="M1525.737,882.329c0-2.985,2.388-5.672,5.672-5.672h85.374c35.822,0,65.076,28.657,65.076,64.181
			c0,27.463-18.209,49.852-44.18,60.3l40.896,75.822c2.09,3.88,0,8.656-5.074,8.656h-31.344c-2.687,0-4.18-1.492-4.776-2.687
			l-39.702-79.105h-33.135v76.12c0,2.985-2.687,5.672-5.672,5.672h-27.463c-3.284,0-5.672-2.687-5.672-5.672V882.329z
			 M1613.5,971.883c15.821,0,29.553-13.731,29.553-30.448c0-15.821-13.731-28.956-29.553-28.956h-48.658v59.404H1613.5z"/>
		<path d="M1360.593,1182.813c13.582,0,23.397,4.303,32.543,12.507c1.211,1.075,1.211,2.689,0.135,3.765l-8.203,8.473
			c-0.941,1.075-2.286,1.075-3.362,0c-5.647-4.977-13.179-7.935-20.709-7.935c-17.213,0-29.988,14.389-29.988,31.333
			c0,16.81,12.91,31.064,30.123,31.064c8.068,0,14.927-3.094,20.574-7.666c1.076-0.94,2.556-0.807,3.362,0l8.339,8.605
			c1.074,0.943,0.806,2.691-0.136,3.633c-9.145,8.875-20.71,13.044-32.678,13.044c-26.896,0-48.546-21.382-48.546-48.277
			C1312.047,1204.464,1333.696,1182.813,1360.593,1182.813"/>
		<path d="M1452.038,1182.813c26.896,0,48.411,21.651,48.411,48.546c0,26.896-21.516,48.277-48.411,48.277
			c-26.896,0-48.277-21.382-48.277-48.277C1403.761,1204.464,1425.142,1182.813,1452.038,1182.813 M1452.038,1262.153
			c16.944,0,30.93-13.851,30.93-30.795s-13.985-31.064-30.93-31.064s-30.795,14.12-30.795,31.064
			S1435.094,1262.153,1452.038,1262.153"/>
		<path d="M1518.066,1185.233c0-1.345,1.21-2.421,2.555-2.421h3.361l55.941,59.438h0.136v-55.539c0-1.345,1.076-2.555,2.555-2.555
			h12.372c1.345,0,2.555,1.21,2.555,2.555v90.503c0,1.345-1.21,2.421-2.555,2.421h-3.229l-56.211-61.725h-0.134v57.825
			c0,1.344-1.075,2.555-2.555,2.555h-12.237c-1.345,0-2.555-1.211-2.555-2.555V1185.233z"/>
		<path d="M1622.018,1186.713c0-1.346,1.075-2.556,2.555-2.556h54.732c1.479,0,2.555,1.21,2.555,2.556v11.026
			c0,1.345-1.076,2.555-2.555,2.555h-39.807v25.282h33.217c1.345,0,2.555,1.21,2.555,2.555v11.027c0,1.345-1.21,2.555-2.555,2.555
			h-33.217v34.023c0,1.344-1.209,2.555-2.554,2.555h-12.372c-1.479,0-2.555-1.211-2.555-2.555V1186.713z"/>
		<rect y="1220.803" width="1218.524" height="19.327"/>
	</g>
</g>
</svg>
